<svg xmlns="http://www.w3.org/2000/svg" height="67" viewBox="0 0 67 67" width="67" fill="#fff" class="social-media-logo instagram" aria-label="Instagram">
    <title>Instagram</title>
  <path d="M43.3 26.6v0c0.5 0 1 0 1.5 0 0.6 0 1.2-0.6 1.2-1.2 0-1 0-1.9 0-2.9 0-0.7-0.5-1.2-1.2-1.2 -1 0-1.9 0-2.9 0 -0.7 0-1.2 0.6-1.2 1.2 0 1 0 1.9 0 2.9 0 0.1 0 0.3 0.1 0.4 0.2 0.5 0.6 0.8 1.2 0.8C42.3 26.6 42.8 26.6 43.3 26.6zM34 27.8c-3.4 0-6.1 2.7-6.2 6.1 0 3.5 2.7 6.2 6 6.3 3.5 0.1 6.2-2.7 6.3-6C40.3 30.7 37.5 27.8 34 27.8zM22 31.1v0.1c0 4.5 0 9 0 13.5 0 0.6 0.6 1.2 1.2 1.2 7.2 0 14.3 0 21.5 0 0.7 0 1.2-0.6 1.2-1.2 0-4.5 0-9 0-13.5v-0.1h-2.9c0.4 1.3 0.5 2.7 0.4 4 -0.2 1.4-0.6 2.6-1.3 3.8s-1.6 2.1-2.8 2.9c-2.9 2-6.8 2.2-9.9 0.4 -1.6-0.9-2.8-2.1-3.7-3.7 -1.3-2.4-1.5-4.9-0.7-7.5C24 31.1 23 31.1 22 31.1zM46.2 49.3c0.2 0 0.3 0 0.5-0.1 1.2-0.3 2.3-1.3 2.5-2.6 0-0.1 0-0.3 0.1-0.4V21.8c0-0.1 0-0.3-0.1-0.4 -0.3-1.4-1.4-2.4-2.8-2.6 -0.1 0-0.1 0-0.2 0H21.8c-0.1 0-0.3 0-0.4 0.1 -1.4 0.3-2.4 1.4-2.5 2.8 0 0.1 0 0.1 0 0.2V46.2c0 0.2 0.1 0.3 0.1 0.5 0.3 1.3 1.4 2.3 2.8 2.5 0.1 0 0.1 0 0.2 0H46.2zM34 64C17.4 64 4 50.6 4 34 4 17.4 17.4 4 34 4s30 13.4 30 30C64 50.6 50.6 64 34 64z" class="symbol"></path>
</svg>